# xmcd
#
# Track frame offsets:
#	150
#	13810
#	30050
#	46285
#	59767
#	73562
#	90765
#	105860
#	120430
#	140302
#	158242
#	173597
#	189172
#	205072
#	222607
#	235770
#	246905
#	261600
#	276042
#	292607
#	310480
#
# Disc length: 4354
#
# Revision: 1
# Processed by: cddbd v1.5.1PL0 Copyright (c) Steve Scherf et al.
# Submitted via: audiograbber 1.82.02
# Normalized: r0:DSETVAR1
#
DISCID=1b110015
DTITLE=Various Artist - GoldDisc 2047
DYEAR=1980
DGENRE=Country
TTITLE0=Ronnie Milsap - (I'd Be) A Legend In My Time
TTITLE1=Randy Travis - Forever and Ever Amen
TTITLE2=Crystal Gayle - I'll Get Over You
TTITLE3=Keith Whitley - Hard Livin'
TTITLE4=Diamond Rio - In A Week Or Two
TTITLE5=Conway Twitty - Julia
TTITLE6=John Anderson - Let Go Of The Stone
TTITLE7=John Michael Montgomery - Life's A Dance
TTITLE8=Wynonna Judd - My Strongest Weakness
TTITLE9=John Conlee - Old School
TTITLE10=Confederate Railroad - Queen Of Memphis
TTITLE11=John Anderson - Somebody Slap Me
TTITLE12=Holly Dunn - Daddy's Hands
TTITLE13=Dolly Parton, Linda Ronstadt and Emmylou Harris - To Know Him Is To Love Him
TTITLE14=Chris LeDoux - Cadillac Ranch
TTITLE15=Ricky Skaggs - Uncle Pen
TTITLE16=Michael Murphey - Carolina In The Pines
TTITLE17=Drive South - Suzy Bogguss
TTITLE18=Billy Dean - Tryin' To Hide A Fire In The Dark
TTITLE19=John Conlee - Domestic Life
TTITLE20=Janie Fricke - Tell Me A Lie
EXTD=
EXTT0=
EXTT1=
EXTT2=
EXTT3=
EXTT4=
EXTT5=
EXTT6=
EXTT7=
EXTT8=
EXTT9=
EXTT10=
EXTT11=
EXTT12=
EXTT13=
EXTT14=
EXTT15=
EXTT16=
EXTT17=
EXTT18=
EXTT19=
EXTT20=
PLAYORDER=
